<svg xmlns="http://www.w3.org/2000/svg" width="32" height="32" viewBox="0 0 32 32">
    <g fill="none" fill-rule="evenodd">
        <path d="M0 0h32v32H0z"/>
        <path fill="#000" fill-rule="nonzero" d="M25.72 23.053L24 21.333v-6.666c0-4.094-2.187-7.52-6-8.427v-.907c0-1.106-.893-2-2-2s-2 .894-2 2v.907c-3.827.907-6 4.32-6 8.427v6.666l-1.72 1.72c-.84.84-.253 2.28.933 2.28h17.56c1.2 0 1.787-1.44.947-2.28zm-4.387-.386H10.667v-8c0-3.307 2.013-6 5.333-6 3.32 0 5.333 2.693 5.333 6v8zM16 29.333c1.467 0 2.667-1.2 2.667-2.666h-5.334A2.666 2.666 0 0 0 16 29.333z"/>
    </g>
</svg>
